<svg width="88" height="86" viewBox="0 0 88 86" fill="none" xmlns="http://www.w3.org/2000/svg">
<path fill-rule="evenodd" clip-rule="evenodd" d="M64.1173 33V45.4134C64.1173 45.7624 64.1062 46.1087 64.0842 46.4521L77.6954 60.0633C79.8859 55.6493 81.1173 50.6752 81.1173 45.4134V33C81.1173 14.7746 66.3427 2.10328e-06 48.1173 2.10328e-06L33 0C14.7746 -7.96657e-07 1.33926e-06 14.7746 5.42612e-07 33L0 45.4134C-7.96659e-07 63.6388 14.7746 78.4134 33 78.4134H48.1173C53.1052 78.4134 57.8347 77.3068 62.0735 75.3257L48.1612 61.4134C48.1466 61.4134 48.1319 61.4134 48.1173 61.4134L33 61.4134C24.1634 61.4134 17 54.25 17 45.4134V33C17 24.1635 24.1635 17 33 17H48.1173C56.9539 17 64.1173 24.1634 64.1173 33Z" fill="white"/>
<rect x="45" y="53.7088" width="15.1446" height="45.0218" rx="6" transform="rotate(-45 45 53.7088)" fill="#7371FF"/>
</svg>
